<svg width="101" height="100" viewBox="0 0 101 100" fill="none" xmlns="http://www.w3.org/2000/svg">
<rect x="0.5" width="100" height="100" rx="50" fill="#FFD8D6"/>
<rect x="28.8311" y="26.6667" width="42.6667" height="44.6667" fill="#FCFCFC"/>
<path d="M50.4971 10C28.4571 10 10.4971 27.96 10.4971 50C10.4971 72.04 28.4571 90 50.4971 90C72.5371 90 90.4971 72.04 90.4971 50C90.4971 27.96 72.5371 10 50.4971 10ZM63.9371 59.2C65.0971 60.36 65.0971 62.28 63.9371 63.44C63.3371 64.04 62.5771 64.32 61.8171 64.32C61.0571 64.32 60.2971 64.04 59.6971 63.44L50.4971 54.24L41.2971 63.44C40.6971 64.04 39.9371 64.32 39.1771 64.32C38.4171 64.32 37.6571 64.04 37.0571 63.44C35.8971 62.28 35.8971 60.36 37.0571 59.2L46.2571 50L37.0571 40.8C35.8971 39.64 35.8971 37.72 37.0571 36.56C38.2171 35.4 40.1371 35.4 41.2971 36.56L50.4971 45.76L59.6971 36.56C60.8571 35.4 62.7771 35.4 63.9371 36.56C65.0971 37.72 65.0971 39.64 63.9371 40.8L54.7371 50L63.9371 59.2Z" fill="#FF2635"/>
</svg>
