<svg width="90" height="26" viewBox="0 0 90 26" fill="none" xmlns="http://www.w3.org/2000/svg">
<path d="M12.9708 11.2375L16.2141 6.01017L19.1844 10.7981C19.0016 10.7951 18.8185 10.7941 18.636 10.7941C18.5419 10.7941 18.4471 10.7945 18.3511 10.7951L16.713 8.15447L16.2141 7.35046L15.7149 8.15447L13.887 11.1007C13.5779 11.1422 13.2718 11.1879 12.9708 11.2375ZM16.2141 8.42248L18.0208 11.335C18.2247 11.3315 18.4298 11.3301 18.636 11.3301C19.1648 11.3301 19.6866 11.3412 20.2001 11.3626L16.2141 4.93815L11.8341 11.9976C12.5948 11.8361 13.4016 11.701 14.2453 11.5956L16.2141 8.42248Z" fill="#6D6D6D"/>
<path d="M18.372 12.677C18.6115 12.6397 18.8492 12.7517 18.9763 12.9582L19.3168 13.5115C19.5666 13.9174 19.2746 14.4399 18.7981 14.4399H14.9551C14.3184 14.4399 14.162 13.6991 14.7686 13.5056C15.8424 13.163 17.056 12.882 18.372 12.677ZM13.4938 21.0615C11.2349 20.1304 9.85446 18.8842 9.85446 17.5151C9.85446 17.1576 9.94853 16.8085 10.1279 16.4712C10.2224 16.2934 10.4152 16.1961 10.6166 16.1961H22.0408C22.5174 16.1961 22.8093 15.6735 22.5595 15.2677L21.315 13.2458C21.0762 12.8578 21.3324 12.3559 21.7874 12.3336C22.3635 12.3054 22.9508 12.2908 23.547 12.2908C24.7411 12.2908 25.8996 12.3492 27.0036 12.4589C27.0282 12.4614 27.0347 12.4279 27.011 12.421C27.0609 12.4356 27.1113 12.4498 27.161 12.4643C27.1977 12.475 27.2353 12.4827 27.2734 12.4868C27.3325 12.4931 27.3914 12.4995 27.4503 12.5062C27.2445 12.4573 27.0353 12.4107 26.8221 12.3661C26.822 12.366 26.8219 12.366 26.8217 12.366C26.8216 12.3659 26.8214 12.3659 26.8213 12.3659C24.9146 11.9671 22.7209 11.7388 20.386 11.7364C20.3722 11.7361 20.3582 11.7361 20.3444 11.7361C19.8128 11.7361 19.2888 11.7479 18.7737 11.7707C18.6019 11.7783 18.4312 11.7871 18.2616 11.7971C16.6348 11.8929 15.1055 12.0992 13.7294 12.3951C13.6106 12.4207 13.4928 12.4469 13.3763 12.4738C12.5604 12.6619 11.8027 12.8823 11.1154 13.13C8.57909 14.0432 7 15.3296 7 16.7545C7 18.5839 9.60336 20.1848 13.4938 21.0615Z" fill="#0652DD"/>
<path d="M27.7703 19.5L31.4023 7.98H34.2263L37.8583 19.5H35.8743L32.5783 9.164H33.0103L29.7543 19.5H27.7703ZM29.7943 17.004V15.204H35.8423V17.004H29.7943ZM43.4567 19.74C42.614 19.74 41.9074 19.54 41.3367 19.14C40.766 18.74 40.3367 18.196 40.0487 17.508C39.7607 16.8147 39.6167 16.0387 39.6167 15.18C39.6167 14.3107 39.7607 13.532 40.0487 12.844C40.3367 12.156 40.758 11.6147 41.3127 11.22C41.8727 10.82 42.5634 10.62 43.3847 10.62C44.2007 10.62 44.9074 10.82 45.5047 11.22C46.1074 11.6147 46.574 12.156 46.9047 12.844C47.2354 13.5267 47.4007 14.3053 47.4007 15.18C47.4007 16.044 47.238 16.82 46.9127 17.508C46.5874 18.196 46.1287 18.74 45.5367 19.14C44.9447 19.54 44.2514 19.74 43.4567 19.74ZM39.2887 23.34V10.86H40.9927V16.924H41.2327V23.34H39.2887ZM43.1607 18.012C43.662 18.012 44.0754 17.8867 44.4007 17.636C44.726 17.3853 44.966 17.0467 45.1207 16.62C45.2807 16.188 45.3607 15.708 45.3607 15.18C45.3607 14.6573 45.2807 14.1827 45.1207 13.756C44.9607 13.324 44.7127 12.9827 44.3767 12.732C44.0407 12.476 43.614 12.348 43.0967 12.348C42.606 12.348 42.206 12.468 41.8967 12.708C41.5874 12.9427 41.358 13.2733 41.2087 13.7C41.0647 14.1213 40.9927 14.6147 40.9927 15.18C40.9927 15.74 41.0647 16.2333 41.2087 16.66C41.358 17.0867 41.59 17.42 41.9047 17.66C42.2247 17.8947 42.6434 18.012 43.1607 18.012ZM49.3241 19.5V7.74H51.2521V19.5H49.3241ZM53.8084 9.548V7.78H55.7364V9.548H53.8084ZM53.8084 19.5V10.86H55.7364V19.5H53.8084ZM61.8848 19.74C60.9942 19.74 60.2342 19.5427 59.6048 19.148C58.9755 18.748 58.4928 18.204 58.1568 17.516C57.8262 16.828 57.6582 16.0493 57.6528 15.18C57.6582 14.2947 57.8315 13.5107 58.1728 12.828C58.5195 12.14 59.0102 11.6013 59.6448 11.212C60.2795 10.8173 61.0342 10.62 61.9088 10.62C62.8902 10.62 63.7195 10.868 64.3968 11.364C65.0795 11.8547 65.5248 12.5267 65.7328 13.38L63.8128 13.9C63.6635 13.436 63.4155 13.076 63.0688 12.82C62.7222 12.5587 62.3275 12.428 61.8848 12.428C61.3835 12.428 60.9702 12.548 60.6448 12.788C60.3195 13.0227 60.0795 13.348 59.9248 13.764C59.7702 14.18 59.6928 14.652 59.6928 15.18C59.6928 16.0013 59.8768 16.6653 60.2448 17.172C60.6128 17.6787 61.1595 17.932 61.8848 17.932C62.3968 17.932 62.7995 17.8147 63.0928 17.58C63.3915 17.3453 63.6155 17.0067 63.7648 16.564L65.7328 17.004C65.4662 17.884 64.9995 18.5613 64.3328 19.036C63.6662 19.5053 62.8502 19.74 61.8848 19.74ZM69.6113 19.74C68.9873 19.74 68.4593 19.6227 68.0273 19.388C67.5953 19.148 67.2673 18.8307 67.0433 18.436C66.8247 18.0413 66.7153 17.6067 66.7153 17.132C66.7153 16.716 66.7847 16.3427 66.9233 16.012C67.062 15.676 67.2753 15.388 67.5633 15.148C67.8513 14.9027 68.2247 14.7027 68.6833 14.548C69.03 14.436 69.4353 14.3347 69.8993 14.244C70.3687 14.1533 70.8753 14.0707 71.4193 13.996C71.9687 13.916 72.542 13.8307 73.1393 13.74L72.4513 14.132C72.4567 13.5347 72.3233 13.0947 72.0513 12.812C71.7793 12.5293 71.3207 12.388 70.6753 12.388C70.286 12.388 69.91 12.4787 69.5473 12.66C69.1847 12.8413 68.9313 13.1533 68.7873 13.596L67.0273 13.044C67.2407 12.3133 67.646 11.7267 68.2433 11.284C68.846 10.8413 69.6567 10.62 70.6753 10.62C71.4433 10.62 72.118 10.7453 72.6993 10.996C73.286 11.2467 73.7207 11.6573 74.0033 12.228C74.158 12.532 74.2513 12.844 74.2833 13.164C74.3153 13.4787 74.3313 13.8227 74.3313 14.196V19.5H72.6433V17.628L72.9233 17.932C72.534 18.556 72.078 19.0147 71.5553 19.308C71.038 19.596 70.39 19.74 69.6113 19.74ZM69.9953 18.204C70.4327 18.204 70.806 18.1267 71.1153 17.972C71.4247 17.8173 71.67 17.628 71.8513 17.404C72.038 17.18 72.1633 16.9693 72.2273 16.772C72.3287 16.5267 72.3847 16.2467 72.3953 15.932C72.4113 15.612 72.4193 15.3533 72.4193 15.156L73.0113 15.332C72.43 15.4227 71.9313 15.5027 71.5153 15.572C71.0993 15.6413 70.742 15.708 70.4433 15.772C70.1447 15.8307 69.8807 15.8973 69.6513 15.972C69.4273 16.052 69.238 16.1453 69.0833 16.252C68.9287 16.3587 68.8087 16.4813 68.7233 16.62C68.6433 16.7587 68.6033 16.9213 68.6033 17.108C68.6033 17.3213 68.6567 17.5107 68.7633 17.676C68.87 17.836 69.0247 17.964 69.2273 18.06C69.4353 18.156 69.6913 18.204 69.9953 18.204ZM76.4141 19.5V10.86H78.1181V12.964L77.9101 12.692C78.0167 12.404 78.1581 12.1427 78.3341 11.908C78.5154 11.668 78.7314 11.4707 78.9821 11.316C79.1954 11.172 79.4301 11.06 79.6861 10.98C79.9474 10.8947 80.2141 10.844 80.4861 10.828C80.7581 10.8067 81.0221 10.8173 81.2781 10.86V12.66C81.0221 12.5853 80.7261 12.5613 80.3901 12.588C80.0594 12.6147 79.7607 12.708 79.4941 12.868C79.2274 13.012 79.0087 13.196 78.8381 13.42C78.6727 13.644 78.5501 13.9 78.4701 14.188C78.3901 14.4707 78.3501 14.7773 78.3501 15.108V19.5H76.4141Z" fill="#434343"/>
</svg>
